<?xml version="1.0" encoding="UTF-8"?>
<!DOCTYPE svg PUBLIC "-//W3C//DTD SVG 1.1//EN" "http://www.w3.org/Graphics/SVG/1.1/DTD/svg11.dtd">
<!-- Creator: CorelDRAW X6 -->
<svg xmlns="http://www.w3.org/2000/svg" xml:space="preserve" width="2362px" height="405px" version="1.1" style="shape-rendering:geometricPrecision; text-rendering:geometricPrecision; image-rendering:optimizeQuality; fill-rule:evenodd; clip-rule:evenodd"
viewBox="0 0 2362 405"
 xmlns:xlink="http://www.w3.org/1999/xlink">
 <defs>
  <style type="text/css">
   <![CDATA[
    .fil1 {fill:#6EBDC9}
    .fil2 {fill:#FEFEFE}
    .fil0 {fill:#FEFEFE;fill-rule:nonzero}
   ]]>
  </style>
 </defs>
 <g id="Layer_x0020_1">
  <metadata id="CorelCorpID_0Corel-Layer"/>
  <g id="_186438784">
   <path class="fil0" d="M443 84l53 0 0 237 -53 0 0 -237zm211 46l0 191 -52 0 0 -191 -67 0 0 -46 186 0 0 46 -67 0zm263 14l0 158c0,17 -3,32 -11,45 -7,13 -17,23 -31,30 -13,7 -29,10 -46,10 -26,0 -51,-9 -73,-27l11 -16c9,8 18,14 28,18 10,4 21,6 33,6 20,0 36,-6 48,-18 12,-12 18,-28 18,-48l0 -28c-6,12 -15,22 -27,29 -11,7 -25,10 -40,10 -16,0 -30,-3 -42,-11 -13,-7 -22,-17 -29,-30 -7,-13 -10,-28 -10,-44 0,-17 3,-31 10,-44 7,-13 17,-23 29,-30 12,-8 26,-11 42,-11 16,0 29,3 40,10 12,7 21,17 27,29l0 -38 23 0zm-86 151c12,0 23,-3 33,-9 9,-5 17,-13 22,-23 6,-11 8,-22 8,-35 0,-12 -2,-24 -8,-34 -5,-10 -13,-18 -22,-24 -10,-6 -21,-9 -33,-9 -12,0 -23,3 -33,9 -10,6 -17,14 -23,24 -5,10 -8,22 -8,34 0,13 3,25 8,35 6,10 13,18 23,23 10,6 21,9 33,9zm217 -152c27,0 48,9 63,26 14,18 21,41 20,71l-148 0c1,19 8,34 21,45 12,12 27,18 46,18 11,0 22,-2 31,-6 10,-4 18,-10 25,-18l13 13c-8,10 -19,17 -31,22 -12,5 -25,7 -40,7 -17,0 -32,-3 -45,-11 -14,-7 -24,-18 -32,-32 -7,-13 -11,-28 -11,-46 0,-17 4,-32 11,-46 8,-14 18,-24 32,-32 13,-7 28,-11 45,-11zm62 79c-1,-18 -7,-33 -18,-44 -11,-11 -26,-17 -44,-17 -18,0 -33,6 -45,17 -12,11 -18,26 -20,44l127 0zm161 -79c21,0 37,6 50,18 12,13 18,29 18,51l0 109 -23 0 0 -104c0,-16 -5,-30 -14,-39 -10,-9 -22,-14 -39,-14 -18,0 -33,6 -44,17 -11,11 -17,26 -18,44l0 96 -23 0 0 -177 23 0 0 41c6,-14 15,-24 26,-31 12,-7 27,-11 44,-11zm197 0c28,0 49,9 63,26 14,18 21,41 20,71l-148 0c2,19 9,34 21,45 13,12 28,18 46,18 11,0 22,-2 32,-6 9,-4 18,-10 25,-18l13 13c-9,10 -19,17 -31,22 -13,5 -26,7 -40,7 -17,0 -33,-3 -46,-11 -13,-7 -24,-18 -31,-32 -8,-13 -11,-28 -11,-46 0,-17 3,-32 11,-46 7,-14 18,-24 31,-32 13,-7 28,-11 45,-11zm63 79c-1,-18 -8,-33 -19,-44 -11,-11 -25,-17 -44,-17 -17,0 -32,6 -44,17 -12,11 -19,26 -21,44l128 0zm90 -37c6,-14 14,-24 25,-31 11,-7 24,-11 40,-11l0 21c-19,0 -34,5 -46,17 -11,11 -17,26 -19,45l0 95 -23 0 0 -177 23 0 0 41z"/>
   <polygon class="fil1" points="107,0 298,203 107,405 0,405 191,203 0,0 "/>
   <path class="fil0" d="M1843 321l-1 -30c-7,10 -16,18 -27,23 -11,5 -24,8 -39,8 -12,0 -23,-3 -32,-7 -9,-5 -16,-11 -21,-19 -5,-8 -7,-18 -7,-28 0,-15 6,-27 18,-36 11,-9 28,-13 48,-13l60 0 0 -14c0,-14 -4,-24 -13,-32 -8,-8 -20,-12 -36,-12 -19,0 -38,8 -57,22l-10 -16c12,-8 23,-14 34,-18 11,-4 23,-6 37,-6 21,0 38,5 50,16 11,11 17,25 18,44l0 118 -22 0zm-63 -18c16,0 29,-4 40,-11 11,-7 18,-18 22,-31l0 -24 -57 0c-15,0 -27,2 -35,7 -9,6 -13,13 -13,24 0,10 4,19 12,25 8,7 18,10 31,10zm235 6c-12,8 -25,12 -39,13 -14,0 -25,-4 -33,-13 -7,-8 -11,-21 -11,-37l0 -106 -26 0 0 -17 26 0 0 -46 22 0 0 46 58 -1 0 18 -58 0 0 102c0,22 8,33 25,33 9,0 18,-3 29,-10l7 18z"/>
   <path class="fil2" d="M2137 143c18,0 33,4 46,11 14,8 25,18 32,32 8,13 12,29 12,46 0,17 -4,33 -12,46 -7,14 -18,25 -32,32 -13,8 -28,11 -46,11 -17,0 -32,-3 -46,-11 -13,-7 -24,-18 -31,-32 -8,-13 -12,-29 -12,-46 0,-17 4,-33 12,-46 7,-14 18,-24 31,-32 14,-7 29,-11 46,-11zm0 19c-12,0 -24,3 -34,9 -10,6 -18,14 -24,25 -5,11 -8,23 -8,36 0,14 3,26 8,37 6,10 14,19 24,24 10,6 22,9 34,9 13,0 25,-3 35,-9 10,-5 18,-14 24,-24 5,-11 8,-23 8,-37 0,-13 -3,-25 -8,-36 -6,-11 -14,-19 -24,-25 -10,-6 -22,-9 -35,-9zm160 23c6,-14 15,-24 26,-31 11,-7 24,-11 39,-11l0 21c-19,0 -34,5 -45,17 -12,11 -18,26 -20,45l0 95 -22 0 0 -177 22 0 0 41z"/>
  </g>
 </g>
</svg>
